<svg xmlns="http://www.w3.org/2000/svg" viewBox="0 0 52 52" width="52" height="52">
  <defs>
    <linearGradient id="bg" x1="0%" y1="0%" x2="100%" y2="100%">
      <stop offset="0%" style="stop-color:#0077b6"/>
      <stop offset="100%" style="stop-color:#00b4d8"/>
    </linearGradient>
    <linearGradient id="wave" x1="0%" y1="0%" x2="100%" y2="0%">
      <stop offset="0%" style="stop-color:#90e0ef"/>
      <stop offset="100%" style="stop-color:#ffffff"/>
    </linearGradient>
  </defs>
  <!-- Fond cercle -->
  <circle cx="26" cy="26" r="26" fill="url(#bg)"/>
  <!-- Vague principale -->
  <path d="M6 29 Q13 22 20 29 Q27 36 34 29 Q41 22 48 29 L48 42 Q26 42 6 42 Z" fill="rgba(255,255,255,0.18)"/>
  <!-- Vague secondaire -->
  <path d="M6 33 Q13 26 20 33 Q27 40 34 33 Q41 26 48 33 L48 44 Q26 44 6 44 Z" fill="rgba(255,255,255,0.28)"/>
  <!-- Goutte / splash -->
  <circle cx="26" cy="18" r="5" fill="url(#wave)" opacity="0.9"/>
  <path d="M26 10 Q29 14 26 18 Q23 14 26 10 Z" fill="white" opacity="0.9"/>
</svg>
